<svg width="222" height="252" viewBox="0 0 222 252" fill="none" xmlns="http://www.w3.org/2000/svg">
<path fill-rule="evenodd" clip-rule="evenodd" d="M118.99 2.1381C114.045 -0.712699 107.955 -0.7127 103.01 2.1381L8.00952 56.8994C3.05374 59.756 0 65.0411 0 70.7612V119.003H51.9718C53.0179 93.9721 73.6417 74 98.9302 74H126.521V66.7259L161.067 81.0118L126.521 95.2977V88H98.9302C81.3752 88 67.0218 101.708 65.9896 119.003H157.562V111.715L192.109 126.001L157.562 140.287V133H65.9911C67.036 150.284 81.3839 163.978 98.9302 163.978H126.521V156.704L161.067 170.99L126.521 185.276V177.978H98.9302C73.6503 177.978 53.032 158.019 51.9729 133H0V180.24C0 185.96 3.05374 191.245 8.00952 194.102L103.01 248.863C107.955 251.714 114.045 251.714 118.99 248.863L213.99 194.102C218.946 191.245 222 185.96 222 180.24V70.7613C222 65.0411 218.946 59.756 213.99 56.8994L118.99 2.1381Z" fill="#444444"/>
</svg>
